<?xml version="1.0" encoding="utf-8"?>
<svg viewBox="0 0 561.771 561.771" width="561.771" height="561.771" xmlns="http://www.w3.org/2000/svg">
  <defs>
    <linearGradient gradientUnits="userSpaceOnUse" x1="297.326" y1="28.751" x2="297.326" y2="585.292" id="gradient-1" gradientTransform="matrix(0.945522, 0, 0, 1.010268, -0.242877, -29.045968)">
      <stop offset="0" style="stop-color: rgb(99.216% 94.118% 82.745%)"/>
      <stop offset="1" style="stop-color: rgb(218, 200, 163);"/>
    </linearGradient>
  </defs>
  <rect width="561.771" height="561.771" style="stroke-width: 0px; paint-order: fill; fill: url('#gradient-1'); fill-rule: nonzero; transform-origin: 280.885px 280.885px;" rx="126.721" ry="126.721"/>
  <path style="stroke: rgb(0, 0, 0); paint-order: stroke; stroke-width: 0px; fill: rgb(61, 61, 61);" d="M 24.95 467.763 C 24.95 467.763 35.451 453.294 275.722 159.896 C 285.905 147.462 338.802 81.711 358.817 80.298 C 378.832 78.884 403.702 84.541 400.063 142.518 C 397.881 177.269 384.26 243.122 351.512 289.604 C 317.917 337.289 239.472 386.12 229.917 367.592 C 222.01 352.26 239.022 317.016 258.998 294.792 C 282.838 268.269 313.657 238.887 342.415 246.751 C 371.513 254.708 378.981 322.436 361.602 378.763 C 354.24 402.625 353.659 397.205 380.043 397.265 C 457.298 397.441 439.72 395.341 499.301 356.876 C 506.319 352.345 458.639 434.162 439.72 434.547 C 404.291 435.265 373.439 436.996 339.271 436.996 C 312.396 436.996 318.093 430.009 332.729 384.251 C 337.548 369.188 341.892 350.186 342.456 337.21 C 343.101 322.329 338.21 299.767 329.914 291.084 C 323.292 284.15 311.215 285.508 298.343 290.965 C 288.975 294.937 274.615 302.332 266.33 320.456 C 261.612 330.778 291.584 318.152 306.454 303.109 C 329.742 279.549 335.558 276.495 359.28 212.347 C 372.404 176.855 382.125 133.274 359.361 135.092 C 347.621 136.03 322.557 158.078 289.174 200.033 C 240.795 260.836 68.014 465.125 68.014 465.125" transform="matrix(1, 0, 0, 1, 0, 1.1368683772161603e-13)"/>
</svg>